<svg xmlns="http://www.w3.org/2000/svg" viewBox="0 0 512 512">
	<path fill="#ca7757" d="M334 42C346 52.05 334.91 56.69 366 67.05C396 77.05 390.24 186.03 361 195C331.5 204.05 241.5 147.45 249 104C256.5 60.55 322 31.95 334 42ZM493 135C476.5 138.05 462.73 150.92 488.5 169.05C502 178.55 509.5 131.95 493 135ZM402 232.05C407.44 247.28 394.5 338.55 407 369C418.62 397.31 357.61 337.08 364 285C370.5 232.05 397 218.05 402 232.05ZM155 331C217.1 283.36 265 225.55 266.5 229.55C276.85 257.15 270.5 281.61 255.5 292.55C240.5 303.5 234 314.55 235 321C248.6 408.67 117.84 462.7 116 453C101 374.05 144.5 339.05 155 331Z" />
	<path stroke="#2c0a01" stroke-width="10" fill="none" d="M279 199C267 245.11 208.93 280.04 147 340C119 367.11 108.05 394.44 115 443.11C116 450.11 116.98 505.74 204 502.11C300 498.11 300 351.11 203 399.11C25.37 487.01 9 398.11 9 398.11M390 215C412.14 229.71 405.16 274.35 401 302.11C398 322.11 400 422.11 468 436.11C488.75 440.38 499 469.22 492 481.11C485 493 452 504.11 372 480C287.66 454.58 293.8 288.55 342 327.11C372 351.11 376 464.11 292 493.11M499 134.05C476 132.55 458 150.05 492 173.05M343 66.11C330.74 84.49 364 156.71 364 178C364 196.11 341 203.11 307 179.11C271.53 154.07 245 134.11 249 104C252.63 76.69 322 -20.89 419 20C476.78 44.36 458 83.11 463 97.11C475.26 131.44 508 116.89 501 156C494 195.11 405 206.89 393 182" />
	<path fill="#2c0a01" d="M402.75 69.78L394.75 63.28C394.75 63.28 417.75 61.3 423.25 87.28C423.83 90.04 410 83.78 396 86.78C385.97 88.93 383.25 94.53 374.5 97.78C365.28 101.2 379 70.75 402.75 69.78Z" />
</svg>