<?xml version="1.0" encoding="utf-8"?>
<svg xmlns="http://www.w3.org/2000/svg" width="64" height="64" fill="none" viewBox="0 0 64 64"><path fill="#EFEBF4" d="M38.55 32.52L21.72 45.39l4.78 5.11 19.33-17.72a5.72 5.72 0 00-7.28-.26z"></path><path fill="#46127B" fill-rule="evenodd" d="M38.245 32.123a6.22 6.22 0 017.917.283l.414.368-20.103 18.43-5.495-5.876 17.267-13.205zm.609.794L22.462 45.452l4.065 4.345 18.534-16.99a5.22 5.22 0 00-6.207.11z" clip-rule="evenodd"></path><path fill="#EFEBF4" d="M44.55 32.52L27.72 45.39l4.78 5.11 19.33-17.72a5.72 5.72 0 00-7.28-.26z"></path><path fill="#46127B" fill-rule="evenodd" d="M44.245 32.123a6.22 6.22 0 017.917.283l.414.368-20.103 18.43-5.495-5.876 17.267-13.205zm.609.794L28.462 45.452l4.065 4.345 18.534-16.99a5.22 5.22 0 00-6.207.11z" clip-rule="evenodd"></path><path fill="var(--icons-bg-fill, #ffffff)" d="M11.5 55.5l3-2h22l22-14.31a5.71 5.71 0 00-7.14-1.46L36.5 44.5h-4a4 4 0 004-4.39 4.12 4.12 0 00-4.15-3.61h-2.94a26.85 26.85 0 01-11.24-2.59 10.07 10.07 0 00-6.4-.67 9.999 9.999 0 00-7.36 6.95L2.5 41.5"></path><path fill="#46127B" fill-rule="evenodd" d="M11.66 32.752a10.57 10.57 0 016.718.703l.006.003A26.35 26.35 0 0029.413 36h2.933a4.62 4.62 0 014.65 4.048l.002.013A4.5 4.5 0 0135.348 44h1.043l14.748-6.719a6.21 6.21 0 017.75 1.596l.347.43L36.648 54H14.651l-2.874 1.916-.554-.832L14.349 53h22.003l21.387-13.911a5.21 5.21 0 00-6.143-.918l-.014.007L36.608 45h-4.11l.002-1h.037a3.501 3.501 0 003.466-3.835A3.62 3.62 0 0032.357 37h-2.952a27.35 27.35 0 01-11.446-2.637 9.57 9.57 0 00-6.078-.636A9.5 9.5 0 004.89 40.33l-.05.171-2.057 1.411-.566-.824 1.765-1.21a10.5 10.5 0 017.676-7.125h.002z" clip-rule="evenodd"></path><path fill="#46127B" fill-rule="evenodd" d="M21.5 44h11v1h-11v-1z" clip-rule="evenodd"></path><path fill="#00A5EF" d="M45 17c0-7.14-6.51-13-13.69-13A13.27 13.27 0 0018 17a13.27 13.27 0 0013.31 13C38.49 30 45 24.22 45 17z"></path><path fill="var(--icons-bg-fill, #ffffff)" fill-rule="evenodd" d="M27 24v1.5h1V24h4v1.5h1V24h1a4 4 0 001.571-7.678A3.505 3.505 0 0037 13.5a3.5 3.5 0 00-3.5-3.5H33V8.5h-1V10h-4V8.5h-1V10h-1.5v1H27v12h-1.5v1H27zm1-1h6a3 3 0 000-6h-6v6zm0-7h5.5a2.5 2.5 0 000-5H28v5z" clip-rule="evenodd"></path></svg>